<?xml version="1.0" encoding="utf-8"?>
<!-- Generator: Adobe Illustrator 22.0.1, SVG Export Plug-In . SVG Version: 6.00 Build 0)  -->
<svg version="1.1" id="Layer_1" xmlns="http://www.w3.org/2000/svg" xmlns:xlink="http://www.w3.org/1999/xlink" x="0px" y="0px"
	 viewBox="0 0 811.1 180.7" style="enable-background:new 0 0 811.1 180.7;" xml:space="preserve">
<style type="text/css">
	.st0{fill:#005DAA;}
</style>
<g>
	<g>
		<path class="st0" d="M90.5,20.1c-4.7-4.9-9.9-8.5-15.6-10.9C69.2,6.8,63,5.6,56.2,5.6c-7.6,0-14.3,1.2-20.2,3.7
			c-5.9,2.5-11.4,6.4-16.3,11.6c-4.6,4.7-8.1,10.2-10.5,16.5c-2.5,6.3-3.7,12.9-3.7,19.9c0,15,4.9,27.4,14.8,37.4
			c9.8,9.9,22.2,14.9,37.1,14.9c6.4,0,12.4-1.2,18-3.6c5.6-2.5,10.7-6,15.3-10.8v12.2h18.1V8.1H90.5V20.1z M81.4,82.3
			C74.7,89.2,67,92.6,58.2,92.6c-9.6,0-17.7-3.4-24.3-10.2c-6.6-6.8-9.9-15.2-9.9-25.3c0-9.6,3.3-17.7,9.9-24.3
			c6.6-6.6,14.6-9.9,24-9.9c9.1,0,17,3.5,23.6,10.4c6.6,7,10,15.3,10,25.1C91.4,67.5,88.1,75.5,81.4,82.3z M178.9,81.5L147.1,8.1
			h-19.2l43.4,99.2h13.5l45.5-99.2h-18.8L178.9,81.5z M250.9,107.4h17.7V8.1h-17.7V107.4z M424.9,107.4h17.7V8.1h-17.7V107.4z
			 M493.1,8.1h-17.7v99.2h71.1V89.7h-53.4V8.1z M646.1,20.3c-5-5.1-10.6-8.9-16.8-11.4C623.2,6.3,616.5,5,609.3,5
			c-6.7,0-13.2,1.4-19.5,4.3c-6.3,2.9-11.9,7-16.9,12.3c-4.6,4.9-8.1,10.4-10.5,16.5c-2.4,6.1-3.6,12.7-3.6,19.7
			c0,6.7,1.3,13.3,3.9,19.8c2.6,6.5,6.2,12.1,10.9,17c4.9,5.1,10.4,9,16.5,11.6c6.1,2.6,12.8,3.9,20.1,3.9c7.1,0,13.8-1.4,20.1-4.3
			c6.3-2.8,11.9-7,17-12.6c4.4-4.8,7.8-10.4,10.2-16.8c2.4-6.4,3.7-13,3.7-19.8c0-6.7-1.3-13.1-3.9-19.4
			C654.7,30.9,651,25.3,646.1,20.3z M633.4,82.4c-6.2,6.6-13.9,10-23.1,10c-9.4,0-17.2-3.3-23.5-9.9c-6.3-6.6-9.4-14.9-9.4-24.8
			c0-10,3.1-18.3,9.4-25c6.3-6.6,14.1-10,23.3-10c9.3,0,17.1,3.3,23.3,9.8c6.2,6.5,9.3,14.9,9.3,24.9
			C642.7,67.4,639.6,75.7,633.4,82.4z M761.2,17.9c-6.9-7.6-16.9-11.5-29.9-11.5c-5.8,0-10.9,1-15.4,3.1c-4.5,2.1-8.6,5.3-12.3,9.8
			V8.1h-17.2v99.2h17.9V62.2c0-13.8,2-23.7,6-29.7c4-6,10.4-9,19.3-9c8.2,0,14.2,2.6,18.1,7.6c3.9,5.1,5.9,12.9,5.9,23.4v52.8h17.9
			V50.7C771.6,36.5,768.2,25.5,761.2,17.9z M352.7,66.9h24.5c-0.2,0.7-1.2,7.9-8.1,15.5c-6.1,6.7-13.9,9.7-23.1,10
			c-5.8,0.2-15.5-1.7-23.5-9.9c-6.3-6.6-9.4-14.9-9.4-24.8c0-10,3.1-18.3,9.4-25c1.2-1.3,9.6-10,23.4-9.9
			c13.9,0.1,21.4,8.1,23.5,10.5h21.6c-1.5-2.8-3.1-5.5-5.1-8.1c-0.2-0.3-5.3-7-11.3-11.3C368.2,9.2,358.1,5,345,5
			c-19,0-30.7,10.4-35.6,15.6c-2.3,2.4-4.4,5.1-6.2,8c-2,3-3.7,6.2-5,9.5c-1.7,4.4-2.9,9-3.3,14c-2.2,25.8,12.1,40,14.5,42.5
			c4.9,5.1,10.4,9,16.5,11.6c6.1,2.6,12.8,4.1,20.1,3.9c21.2-0.5,35.2-12.3,42.5-23.2c3-4.4,5-9.4,6.4-14.8
			C397,64,397,54.1,397,53.7v-2.1h-44.2V66.9z"/>
	</g>
	<g>
		<path class="st0" d="M783.6,21.9V9.6h-4.4V8.1h10.4v1.5h-4.4v12.2H783.6z"/>
		<path class="st0" d="M803.7,21.9V10.6L799,21.9h-0.7l-4.7-11.3v11.3h-1.7V8.1h2.5l4.3,10.3l4.3-10.3h2.5v13.7H803.7z"/>
	</g>
</g>
<g>
	<path d="M308.2,164.4L308.2,164.4c-1.1,2.4-2.8,3.5-5.4,3.5c-4.5,0-5.8-2.9-5.8-6.9c0-6.4,6.3-6.7,11-6.5c0.1-2.8,0.1-5.8-3.5-5.8
		c-2.3,0-3.5,1.5-3.3,3.8h-3.7c0.2-4.7,2.7-6.3,7.1-6.3c5.4,0,6.8,2.8,6.8,6.3v10.1c0,1.7,0.2,3.4,0.4,5h-3.8V164.4z M300.5,161.2
		c0,2,1,3.9,3.3,3.9c2.1,0,4.7-1.3,4.3-8.1C304.8,157,300.5,156.7,300.5,161.2z"/>
	<path d="M329.3,167.4h-3.6v-30.1h6.2l7.6,25.3h0.1l7.7-25.3h6.3v30.1h-3.8v-26.8h-0.1l-8.4,26.8h-3.6l-8.3-26.8h-0.1V167.4z"/>
	<path d="M358.1,157.2c0-6.2,0.7-11.3,8-11.3s8,5.1,8,11.3c0,9.3-3.5,10.6-8,10.6S358.1,166.5,358.1,157.2z M370.5,155.8
		c0-5.8-1.8-7-4.4-7s-4.4,1.2-4.4,7c0,6.8,0.9,9.3,4.4,9.3S370.5,162.6,370.5,155.8z"/>
	<path d="M379.1,146.4v-4l3.4-1.5v5.6h4.6v2.6h-4.6v12.9c0,1.3,0,3,3.1,3c0.2,0,0.8-0.1,1.5-0.2v2.6c-1.1,0.1-2.3,0.3-3.4,0.3
		c-3.3,0-4.7-1.3-4.7-3.8v-15h-3.5v-2.6H379.1z"/>
	<path d="M388.8,157.2c0-6.2,0.7-11.3,8-11.3s8,5.1,8,11.3c0,9.3-3.5,10.6-8,10.6S388.8,166.5,388.8,157.2z M401.3,155.8
		c0-5.8-1.8-7-4.4-7s-4.4,1.2-4.4,7c0,6.8,0.9,9.3,4.4,9.3S401.3,162.6,401.3,155.8z"/>
	<path d="M412.2,149.6L412.2,149.6c1.5-3.2,3.2-3.6,6.6-3.6v3.5c-0.3,0-0.6-0.1-0.9-0.1c-0.3,0-0.6-0.1-0.9-0.1
		c-3.8,0-4.8,2.9-4.8,5.7v12.4h-3.4v-21h3.4V149.6z"/>
	<path d="M420.8,157.2c0-6.2,0.7-11.3,8-11.3s8,5.1,8,11.3c0,9.3-3.5,10.6-8,10.6S420.8,166.5,420.8,157.2z M433.2,155.8
		c0-5.8-1.8-7-4.4-7s-4.4,1.2-4.4,7c0,6.8,0.9,9.3,4.4,9.3S433.2,162.6,433.2,155.8z"/>
	<path d="M444.1,167.4h-3.4v-30.1h3.4V167.4z"/>
	<path d="M459.1,164.4L459.1,164.4c-1.1,2.4-2.8,3.5-5.4,3.5c-4.5,0-5.8-2.9-5.8-6.9c0-6.4,6.2-6.7,11-6.5c0.1-2.8,0.1-5.8-3.5-5.8
		c-2.3,0-3.5,1.5-3.3,3.8h-3.7c0.2-4.7,2.7-6.3,7.1-6.3c5.4,0,6.8,2.8,6.8,6.3v10.1c0,1.7,0.2,3.4,0.4,5h-3.8V164.4z M451.4,161.2
		c0,2,1,3.9,3.3,3.9c2.1,0,4.7-1.3,4.3-8.1C455.8,157,451.4,156.7,451.4,161.2z"/>
	<path d="M479.6,158.5v0.9c0,4.1,2.6,5.4,5,5.4c3,0,5.4-1.3,5.4-4.9c0-6.7-13.5-5.9-13.5-15c0-5.3,3.8-8.2,8.8-8.2
		c5.5,0,8.6,2.7,8.3,8.8h-4c0-3.3-1-5.5-4.6-5.5c-2.3,0-4.6,1.2-4.6,4.4c0,6.6,13.5,5.7,13.5,15.2c0,6.3-4.4,8.4-9.3,8.4
		c-8.9,0.1-8.9-6.7-8.8-9.6H479.6z"/>
	<path d="M497.7,157.2c0-6.2,0.7-11.3,8-11.3c7.3,0,8,5.1,8,11.3c0,9.3-3.5,10.6-8,10.6S497.7,166.5,497.7,157.2z M510.1,155.8
		c0-5.8-1.8-7-4.4-7s-4.4,1.2-4.4,7c0,6.8,0.9,9.3,4.4,9.3S510.1,162.6,510.1,155.8z"/>
	<path d="M521,167.4h-3.4v-30.1h3.4V167.4z"/>
	<path d="M536.6,146.4h3.4v16.7c0,1.5,0.1,2.9,0.2,4.4h-3.6v-2.5h-0.1c-1.1,1.9-3.1,3-5.3,3c-3.7,0-5.7-1.8-5.7-5.4v-16h3.4V161
		c0,2.5,1.2,4.2,3.6,4.2c1.8,0,4.1-1.4,4.1-4.9V146.4z"/>
	<path d="M546,146.4v-4l3.4-1.5v5.6h4.6v2.6h-4.6v12.9c0,1.3,0,3,3.1,3c0.2,0,0.8-0.1,1.5-0.2v2.6c-1.1,0.1-2.3,0.3-3.4,0.3
		c-3.2,0-4.7-1.3-4.7-3.8v-15h-3.5v-2.6H546z"/>
	<path d="M556.3,137.3h3.8v3.7h-3.8V137.3z M559.9,167.4h-3.4v-21h3.4V167.4z"/>
	<path d="M563.7,157.2c0-6.2,0.7-11.3,8-11.3s8,5.1,8,11.3c0,9.3-3.5,10.6-8,10.6S563.7,166.5,563.7,157.2z M576.1,155.8
		c0-5.8-1.8-7-4.4-7s-4.4,1.2-4.4,7c0,6.8,0.9,9.3,4.4,9.3S576.1,162.6,576.1,155.8z"/>
	<path d="M595,167.4v-14.6c0-2.2-0.8-4.1-3.7-4.1c-3.8,0-4.3,3.3-4.3,6.2v12.5h-3.4v-16.7c0-1.5-0.1-2.9-0.2-4.4h3.6v2.7h0.2
		c1.3-2.4,2.9-3.1,5.6-3.1c4.5,0,5.6,2.7,5.6,6.9v14.6H595z"/>
	<path d="M609,167.8c-4.5,0-7.4-2-7.2-6.8h3.9c0,1.2,0,4,3.5,4c2,0,3.6-1,3.6-3.2c0-3.8-10.5-3.8-10.5-10.1c0-2.2,1.3-5.8,7.3-5.8
		c3.8,0,7,1.8,6.7,6h-3.8c0-2.2-1.1-3.4-3.3-3.4c-1.8,0-3.3,1-3.3,2.8c0,3.7,10.5,3.6,10.5,10C616.4,166.1,613.2,167.8,609,167.8z"
		/>
	<path d="M642.1,145.6c0-1.7-0.1-3.4-0.9-4.4c-0.8-1-2.6-1.3-3.4-1.3c-3.2,0-4.4,1.9-4.5,2.3c-0.1,0.3-0.9,1.1-0.9,6.3v8
		c0,7.4,2.4,8.3,5.4,8.3c1.2,0,4.7-0.4,4.8-6.3h4c0.2,9.5-6.5,9.5-8.5,9.5c-3.8,0-9.5-0.2-9.5-11.9v-8.5c0-8.5,3.8-10.9,9.7-10.9
		c6,0,8.3,3.1,7.9,8.9H642.1z"/>
	<path d="M650.2,157.2c0-6.2,0.7-11.3,8-11.3s8,5.1,8,11.3c0,9.3-3.5,10.6-8,10.6S650.2,166.5,650.2,157.2z M662.6,155.8
		c0-5.8-1.8-7-4.4-7s-4.4,1.2-4.4,7c0,6.8,0.9,9.3,4.4,9.3C661.7,165.1,662.6,162.6,662.6,155.8z"/>
	<path d="M680.4,167.4v-14.6c0-2.1-0.6-4.1-3.3-4.1c-1,0-2.5,0.6-3,1.4c-0.6,1-0.8,2.3-0.8,3.1v14.2h-3.4v-16.7
		c0-1.5-0.1-2.9-0.2-4.4h3.6v2.6h0.1c1-2.2,2.8-3,5.3-3c1.9,0,4.1,0.8,4.9,2.7c1.2-2.3,3.1-2.7,5-2.7c2.2,0,5.8,0.5,5.8,5.5v16h-3.4
		v-14.6c0-2.1-0.6-4.1-3.3-4.1c-1.3,0-1.7,0-2.6,0.8c-1,0.8-1.2,2.9-1.2,3.7v14.2H680.4z"/>
	<path d="M702.3,148.9L702.3,148.9c1.2-2,2.7-2.9,4.9-2.9c3.4,0,6.8,1.3,6.8,10.6c0,5.2-0.2,11.3-7,11.3c-2,0-3.5-0.9-4.6-2.5h-0.1
		v10.1h-3.4v-29h3.4V148.9z M710.4,156.6c0-3.2,0-7.8-4.3-7.8c-4.2,0-3.8,5.8-3.8,9c0,2.8,0.2,7.3,4,7.3
		C709.9,165.1,710.4,162.2,710.4,156.6z"/>
	<path d="M728.6,164.4L728.6,164.4c-1.1,2.4-2.8,3.5-5.4,3.5c-4.5,0-5.8-2.9-5.8-6.9c0-6.4,6.2-6.7,11-6.5c0.1-2.8,0.1-5.8-3.5-5.8
		c-2.3,0-3.5,1.5-3.3,3.8h-3.7c0.2-4.7,2.7-6.3,7.1-6.3c5.4,0,6.8,2.8,6.8,6.3v10.1c0,1.7,0.2,3.4,0.4,5h-3.8V164.4z M720.9,161.2
		c0,2,1,3.9,3.3,3.9c2.1,0,4.7-1.3,4.3-8.1C725.2,157,720.9,156.7,720.9,161.2z"/>
	<path d="M748,167.4v-14.6c0-2.2-0.8-4.1-3.7-4.1c-3.8,0-4.3,3.3-4.3,6.2v12.5h-3.4v-16.7c0-1.5-0.1-2.9-0.2-4.4h3.6v2.7h0.2
		c1.3-2.4,2.9-3.1,5.6-3.1c4.5,0,5.6,2.7,5.6,6.9v14.6H748z"/>
	<path d="M762.5,163.5L762.5,163.5l5.1-17.1h3.7l-9.5,29h-3.5l2.4-8l-7.1-21h4L762.5,163.5z"/>
</g>
</svg>
